<?xml version="1.0" standalone="no"?>
<!DOCTYPE svg PUBLIC "-//W3C//DTD SVG 20010904//EN"
 "http://www.w3.org/TR/2001/REC-SVG-20010904/DTD/svg10.dtd">
<svg version="1.0" xmlns="http://www.w3.org/2000/svg"
 width="300.000000pt" height="300.000000pt" viewBox="0 0 300.000000 300.000000"
 preserveAspectRatio="xMidYMid meet">
<metadata>
Created by potrace 1.14, written by Peter Selinger 2001-2017
</metadata>
<g transform="translate(0.000000,300.000000) scale(0.100000,-0.100000)"
fill="#000000" stroke="none">
<path d="M1310 2520 c-417 -43 -740 -237 -929 -556 -37 -63 -46 -73 -78 -79
-97 -18 -204 -81 -234 -137 -6 -11 -17 -57 -24 -102 -13 -79 -13 -84 20 -211
54 -218 189 -468 296 -550 28 -22 63 -53 78 -70 212 -247 453 -388 776 -453
393 -80 758 16 1061 278 l67 58 86 7 c120 9 263 33 329 56 135 47 187 143 116
219 l-23 25 42 23 c79 42 98 109 47 160 -32 32 -106 54 -227 68 l-62 6 7 32
c4 17 7 99 7 181 0 164 -14 234 -76 378 -87 206 -303 425 -534 540 -204 102
-500 152 -745 127z m363 -85 c122 -18 253 -61 371 -122 l90 -47 -60 -12 c-126
-26 -239 -88 -362 -200 -127 -114 -188 -218 -213 -358 -22 -131 32 -291 146
-428 30 -36 55 -69 55 -73 0 -3 -16 -22 -35 -42 -46 -48 -48 -105 -6 -178 85
-149 278 -249 520 -271 l75 -7 -40 -34 c-191 -165 -449 -252 -746 -253 -266 0
-507 70 -709 208 -82 55 -187 147 -179 155 3 3 23 2 45 -3 61 -14 223 -11 285
5 69 18 176 91 240 163 70 78 180 309 180 375 -1 64 -29 163 -67 232 -81 148
-217 242 -427 295 -123 31 -299 60 -365 60 -22 0 -41 3 -41 6 0 4 21 38 47 76
154 233 439 403 758 453 111 18 321 18 438 0z m574 -275 c150 -75 283 -275
333 -501 18 -81 10 -243 -15 -294 -39 -79 -46 -81 -367 -89 -235 -5 -297 -4
-356 9 -137 28 -194 72 -250 193 -24 50 -27 69 -27 157 0 97 1 104 39 180 66
134 238 287 393 351 86 35 172 33 250 -6z m-1532 -366 c209 -41 331 -98 418
-194 65 -73 108 -159 118 -243 l9 -71 -65 -132 c-107 -220 -211 -303 -405
-325 -189 -22 -276 7 -400 131 -42 41 -92 100 -112 130 -47 73 -123 264 -150
380 -19 82 -20 103 -11 167 12 84 26 104 97 140 116 59 259 64 501 17z m2030
-607 c72 -14 155 -45 155 -58 0 -16 -55 -49 -116 -69 -63 -21 -82 -22 -527
-23 l-462 -2 0 -30 0 -30 465 -1 c464 -1 517 -5 558 -37 21 -17 14 -54 -15
-75 -64 -44 -170 -68 -364 -83 -301 -23 -512 25 -645 145 -52 46 -101 133 -91
160 15 38 101 71 256 100 47 9 87 19 90 22 11 12 624 -5 696 -19z"/>
<path d="M2356 1829 c-40 -31 -56 -77 -56 -157 0 -84 21 -149 62 -191 55 -56
114 -53 155 8 30 44 29 59 -1 54 -35 -7 -56 29 -56 97 0 62 19 100 51 100 20
0 20 1 2 31 -44 74 -107 98 -157 58z"/>
</g>
</svg>
